<?xml version="1.0" standalone="no"?><!DOCTYPE svg PUBLIC "-//W3C//DTD SVG 1.1//EN" "http://www.w3.org/Graphics/SVG/1.1/DTD/svg11.dtd"><svg t="1616225785219" class="icon" viewBox="0 0 1024 1024" version="1.1" xmlns="http://www.w3.org/2000/svg" p-id="1356" xmlns:xlink="http://www.w3.org/1999/xlink" width="200" height="200"><defs><style type="text/css"></style></defs><path d="M512 512m-448 0a448 448 0 1 0 896 0 448 448 0 1 0-896 0Z" fill="#F2FAFF" p-id="1357"></path><path d="M512 201c8.8 0 16 7.2 16 16v48c0 8.8-7.2 16-16 16s-16-7.2-16-16v-48c0-8.8 7.2-16 16-16z m0 542c8.8 0 16 7.2 16 16v48c0 8.8-7.2 16-16 16s-16-7.2-16-16v-48c0-8.8 7.2-16 16-16z m311-231c0 8.8-7.2 16-16 16h-48c-8.8 0-16-7.2-16-16s7.2-16 16-16h48c8.8 0 16 7.2 16 16z m-542 0c0 8.8-7.2 16-16 16h-48c-8.8 0-16-7.2-16-16s7.2-16 16-16h48c8.8 0 16 7.2 16 16z" fill="#13227a" p-id="1358" data-spm-anchor-id="a313x.7781069.0.i11" class="selected"></path><path d="M528 483.7c0-6.6 5.4-12 12-12s12 5.4 12 12c0 21.8-18 39.3-40 39.3s-40-17.5-40-39.3c0-6.6 5.4-12 12-12s12 5.4 12 12c0 8.4 7.1 15.3 16 15.3s16-6.9 16-15.3z m30.8-46.3l1.7-1c7.7-4.5 17.3-4.5 25 0l1.7 1c6.7 3.9 10.8 11.1 10.8 18.9 0 3.8-3 6.8-6.8 6.8-1.3 0-2.6-0.4-3.7-1.1l-2-1.3c-7.6-5-17.4-5-25 0l-2 1.3c-3.1 2.1-7.4 1.2-9.4-2-0.7-1.1-1.1-2.4-1.1-3.7 0-7.8 4.1-15 10.8-18.9z m-121 0l1.7-1c7.7-4.5 17.3-4.5 25 0l1.7 1c6.7 3.9 10.8 11.1 10.8 18.9 0 3.8-3 6.8-6.8 6.8-1.3 0-2.6-0.4-3.7-1.1l-2-1.3c-7.6-5-17.4-5-25 0l-2 1.3c-3.1 2.1-7.4 1.2-9.4-2-0.7-1.1-1.1-2.4-1.1-3.7 0-7.8 4.1-15 10.8-18.9zM512 660c81.7 0 148-66.3 148-148s-66.3-148-148-148-148 66.3-148 148 66.3 148 148 148z m0 32c-99.4 0-180-80.6-180-180s80.6-180 180-180 180 80.6 180 180-80.6 180-180 180z m0 102c-155.7 0-282-126.3-282-282s126.3-282 282-282 282 126.3 282 282-126.3 282-282 282z m0-24c142.5 0 258-115.5 258-258S654.5 254 512 254 254 369.5 254 512s115.5 258 258 258z" fill="#13227a" p-id="1359" data-spm-anchor-id="a313x.7781069.0.i9" class="selected"></path><path d="M403 497c-11.6 0-21-5.1-21-11.5s9.4-11.5 21-11.5 21 5.1 21 11.5-9.4 11.5-21 11.5z m218 0c-11.6 0-21-5.1-21-11.5s9.4-11.5 21-11.5 21 5.1 21 11.5-9.4 11.5-21 11.5z" fill="#13227a" p-id="1360" data-spm-anchor-id="a313x.7781069.0.i10" class="selected"></path></svg>