<?xml version="1.0" standalone="no"?><!DOCTYPE svg PUBLIC "-//W3C//DTD SVG 1.1//EN" "http://www.w3.org/Graphics/SVG/1.1/DTD/svg11.dtd"><svg t="1591105512689" class="icon" viewBox="0 0 1024 1024" version="1.1" xmlns="http://www.w3.org/2000/svg" p-id="1195" xmlns:xlink="http://www.w3.org/1999/xlink" width="200" height="200"><defs><style type="text/css"></style></defs><path d="M730.7264 901.22752H240.34816c-50.74432 0-92.02688-43.96544-92.02688-98.00192V220.77952c0-54.03648 41.28256-98.00192 92.02688-98.00192h490.37824c50.74432 0 92.02688 43.96544 92.02688 98.00192a38.3232 38.3232 0 1 0 76.64128 0C899.39456 124.44672 823.72608 46.08 730.7264 46.08H240.34816C147.34848 46.08 71.68 124.44672 71.68 220.77952V803.2256C71.68 899.55328 147.34848 977.92 240.34816 977.92h490.37824a38.3488 38.3488 0 0 0 0-76.69248zM486.81472 283.83232a38.33344 38.33344 0 0 0-38.31808-38.3488H219.53536a38.3488 38.3488 0 0 0 0 76.69248H448.512a38.33344 38.33344 0 0 0 38.30272-38.34368z m-267.264 152.43264a38.3488 38.3488 0 0 0 0 76.69248h175.29856a38.3488 38.3488 0 0 0 0-76.69248H219.53536z m720.62976 299.1104a283.01824 283.01824 0 0 0-161.23904-197.02272 180.10112 180.10112 0 1 0-227.84 0 283.02336 283.02336 0 0 0-161.23904 197.02272 80.70144 80.70144 0 0 0 16.12288 68.096 81.67424 81.67424 0 0 0 63.9232 30.6432h390.23616a81.68448 81.68448 0 0 0 63.9232-30.6432 80.6912 80.6912 0 0 0 16.09728-68.096z m-275.1744-440.0384a103.53664 103.53664 0 1 1-103.46496 103.53664 103.61344 103.61344 0 0 1 103.46496-103.53664z m199.34208 460.04224a5.28384 5.28384 0 0 1-4.224 2.048H469.888a5.28896 5.28896 0 0 1-4.22912-2.048 4.06528 4.06528 0 0 1-0.94208-3.6352 205.05088 205.05088 0 0 1 400.57856 0 4.06528 4.06528 0 0 1-0.9472 3.6352z" fill="#1296db" p-id="1196"></path></svg>