<?xml version="1.0" standalone="no"?><!DOCTYPE svg PUBLIC "-//W3C//DTD SVG 1.1//EN" "http://www.w3.org/Graphics/SVG/1.1/DTD/svg11.dtd"><svg t="1591105698837" class="icon" viewBox="0 0 1024 1024" version="1.1" xmlns="http://www.w3.org/2000/svg" p-id="4274" xmlns:xlink="http://www.w3.org/1999/xlink" width="200" height="200"><defs><style type="text/css"></style></defs><path d="M841 315.6H641c-28.7 0-52-23.3-52-52V82h46v181.6c0 3.3 2.7 6 6 6h200v46z" fill="#1296db" p-id="4275"></path><path d="M804 966H215c-29.2 0-53-23.8-53-53V119c0-29.2 23.8-53 53-53h41c12.7 0 23 10.3 23 23s-10.3 23-23 23h-41c-3.9 0-7 3.1-7 7v794c0 3.9 3.1 7 7 7h589c3.9 0 7-3.1 7-7V288.5L609.3 112H426c-12.7 0-23-10.3-23-23s10.3-23 23-23h192c5.6 0 11 2 15.1 5.7l216 189c5 4.4 7.9 10.7 7.9 17.3v635c0 29.2-23.8 53-53 53zM364.9 112h-39c-12.7 0-23-10.3-23-23s10.3-23 23-23h39c12.7 0 23 10.3 23 23s-10.3 23-23 23z" fill="#1296db" p-id="4276"></path><path d="M308 264h36c7.7 0 14 6.3 14 14v36c0 7.7-6.3 14-14 14h-36c-7.7 0-14-6.3-14-14v-36c0-7.7 6.3-14 14-14zM404 264h36c7.7 0 14 6.3 14 14v36c0 7.7-6.3 14-14 14h-36c-7.7 0-14-6.3-14-14v-36c0-7.7 6.3-14 14-14zM320 417h389c12.7 0 23 10.3 23 23s-10.3 23-23 23H320c-12.7 0-23-10.3-23-23s10.3-23 23-23zM319 546h389c12.7 0 23 10.3 23 23s-10.3 23-23 23H319c-12.7 0-23-10.3-23-23s10.3-23 23-23zM662.7 824.9c46.5-30.1 69.7-57.6 69.7-82.5 0-21.8-8.7-35.4-35.1-35.4-10 0-21.5 8.5-34.6 25.4-7.3-16.9-19.6-25.4-37.1-25.4-22.2 0-32.6 12.2-32.6 35.4 0 25 23.2 52.5 69.7 82.5z" fill="#1296db" p-id="4277"></path></svg>