<?xml version="1.0" standalone="no"?><!DOCTYPE svg PUBLIC "-//W3C//DTD SVG 1.1//EN" "http://www.w3.org/Graphics/SVG/1.1/DTD/svg11.dtd"><svg t="1591685223827" class="icon" viewBox="0 0 1024 1024" version="1.1" xmlns="http://www.w3.org/2000/svg" p-id="3544" xmlns:xlink="http://www.w3.org/1999/xlink" width="200" height="200"><defs><style type="text/css"></style></defs><path d="M512 512m-512 0a512 512 0 1 0 1024 0 512 512 0 1 0-1024 0Z" fill="#E9F4FF" p-id="3545"></path><path d="M510.4384 230.0416c82.944 0 147.456 24.576 195.072 73.728 41.472 43.008 62.208 96.768 62.208 160.512 0 53.76-17.664 103.68-51.456 149.76-34.56 44.544-33.536 55.3984-76.544 55.3984l-9.3696-48.1024c22.272 0 22.9376-8.064 44.4416-36.48 25.344-33.024 38.4-72.96 38.4-119.808 0-49.152-17.664-91.392-52.224-125.184-38.4-36.864-89.856-55.296-154.368-55.296-69.12 0-125.184 22.272-167.424 66.816-42.24 43.776-62.976 99.84-62.976 168.96 0 76.032 21.504 133.632 66.048 173.568 40.704 36.096 98.304 54.528 173.568 54.528 50.688 0 94.464-8.448 130.56-24.576 33.024-16.128 59.136-38.4 79.104-66.048h68.352c-6.0928 10.7776-12.8 20.992-20.1472 30.6688-25.1392 33.024-57.728 59.392-98.1248 78.3872-47.616 21.504-101.376 33.024-159.744 33.024-96.768 0-172.8-25.344-227.328-76.032-54.528-50.688-81.408-119.808-81.408-205.824 0-79.872 26.112-147.456 79.872-201.216 56.832-58.368 131.328-86.784 223.488-86.784z" fill="#040405" p-id="3546"></path><path d="M597.248 681.216c-32.256 0-50.688-16.128-55.296-48.384-23.04 33.024-53.76 49.92-90.624 49.92-33.792 0-61.44-11.52-82.944-34.56-21.504-23.04-31.488-51.456-31.488-86.016 0-53.76 16.896-101.376 50.688-142.848 33.024-42.24 72.96-62.976 119.04-62.976 33.792 0 57.6 17.664 70.656 53.76l10.752-39.168h64.512l-52.992 190.464c-7.68 26.112-10.752 43.008-10.752 50.688 0 10.752 5.376 16.128 17.664 16.128 22.272 0 33.792 52.992-9.216 52.992z m-78.336-262.656c-29.952 0-56.064 14.592-78.336 44.544-23.04 29.952-33.792 63.744-33.792 102.144 0 18.432 3.84 33.024 12.288 43.776 7.68 10.752 20.736 16.128 37.632 16.128 15.36 0 30.72-6.144 46.08-18.432a95.232 95.232 0 0 0 33.792-49.152l15.36-56.832c6.144-21.504 9.216-35.328 9.216-39.936 0-12.288-4.608-21.504-12.288-29.184-8.448-9.216-18.432-13.056-29.952-13.056z" fill="#2394FB" p-id="3547"></path></svg>